<svg width="230" height="252" viewBox="0 0 230 252" fill="none"
	xmlns="http://www.w3.org/2000/svg">

	<style>
		g {
			fill: url(#a878e746);

		}
		@media(prefers-color-scheme: dark) {
			g {
				fill: url(#a878e438);
			}
		}
	
	</style>

	<defs>
		<linearGradient gradientTransform="rotate(25)" id="a878e438" x1="0%" y1="0%" x2="100%" y2="0%">
			<stop offset="0%" stop-color="#122663" stop-opacity="1"></stop>
			<stop offset="100%" stop-color="#5DD7AD" stop-opacity="1"></stop>
		</linearGradient>
		<linearGradient gradientTransform="rotate(25)" id="a878e746" x1="0%" y1="0%" x2="100%" y2="0%">
			<stop offset="0%" stop-color="#2c4181ff" stop-opacity="1"></stop>
			<stop offset="100%" stop-color="#288363ff" stop-opacity="1"></stop>
		</linearGradient>
	</defs>

	<g>
		<path d="M221.135 42.6165C208.642 39.6698 196.273 36.2174 184.06 32.268C161.809 25.0531 135.438 14.5479 114.913 0.550156C71.017 30.1503 0 44.4436 0 44.4436C0 44.4436 0.212278 105.198 4.02064 129.309C7.64705 152.255 16.9772 171.56 28.7737 187.554C29.5698 188.636 30.3785 189.705 31.1972 190.754C36.4665 197.486 42.2462 203.802 48.4852 209.646C49.4582 210.561 50.4311 211.463 51.4116 212.34C81.737 239.656 114.91 251.45 114.91 251.45C114.91 251.45 211.55 216.95 225.393 129.309C229.204 105.196 229.414 44.4436 229.414 44.4436C229.414 44.4436 226.361 43.8371 221.135 42.6165ZM218.527 128.223C215.548 147.072 208.224 164.883 196.751 181.156C187.479 194.312 175.483 206.52 161.096 217.45C140.864 232.815 121.456 241.339 114.91 243.987C108.332 241.344 88.8433 232.815 68.5202 217.442C63.2646 213.47 58.2204 209.225 53.4081 204.726C47.158 198.888 41.3885 192.555 36.1554 185.79C35.3417 184.729 34.5413 183.657 33.7547 182.576C33.411 182.101 33.0597 181.628 32.7211 181.148C21.2101 164.878 13.8663 147.072 10.8868 128.225C7.87449 109.145 7.15932 65.5526 6.99758 50.0336C19.1423 47.2287 31.1752 43.9596 43.0696 40.2335C72.4221 31.0474 96.5535 20.5093 114.89 8.87195C131.526 19.5465 152.891 29.2481 178.551 37.7796C179.946 38.2446 181.361 38.7046 182.784 39.162C184.03 39.5612 185.281 39.9631 186.547 40.3573C196.067 43.3328 205.677 46.0112 215.363 48.3885C218.113 49.0607 220.486 49.6141 222.414 50.0488C222.255 65.5855 221.54 109.153 218.527 128.223Z" />
		<path d="M203.509 54.6254C192.548 51.9819 181.703 48.88 171.002 45.3282C152.716 39.2303 131.663 30.6077 115.085 19.3039C77.7519 44.4765 17.3538 56.6345 17.3538 56.6345C17.3538 56.6345 17.5307 108.306 20.773 128.811C23.6893 147.275 30.9472 162.96 40.2141 176.117C40.9899 177.221 41.7809 178.3 42.582 179.366C47.9041 186.437 53.7873 192.735 59.8346 198.302C60.8177 199.202 61.8058 200.089 62.7939 200.956C88.1055 223.101 115.085 232.691 115.085 232.691C115.085 232.691 197.277 203.351 209.053 128.811C212.293 108.306 212.47 56.6345 212.47 56.6345C212.47 56.6345 210.878 56.3186 208.068 55.6868C206.789 55.4013 205.26 55.0449 203.509 54.6254ZM208.475 59.8515C208.368 71.4459 207.815 111.152 205.126 128.192C202.546 144.545 196.188 159.983 186.236 174.085C178.22 185.444 167.861 195.98 155.443 205.396C137.286 219.166 119.922 226.527 115.077 228.443C110.235 226.545 92.9424 219.249 74.732 205.535C71.6049 203.179 68.562 200.714 65.6091 198.143C64.6115 197.268 63.6241 196.382 62.6473 195.484C56.1324 189.503 50.3681 183.162 45.4174 176.528C44.839 175.756 44.2704 174.977 43.7116 174.191C43.4918 173.88 43.2846 173.567 43.0672 173.261C33.4111 159.379 27.2247 144.227 24.6926 128.192C21.9987 111.147 21.4503 71.4232 21.3441 59.8414C32.1435 57.3996 42.8388 54.518 53.4031 51.2037C78.7703 43.2635 99.4977 34.1457 115.07 24.0726C128.81 33.059 146.527 41.2418 167.859 48.4694C170.758 49.4483 173.667 50.3952 176.587 51.3099C185.877 54.2109 195.268 56.7784 204.742 59.0075C206.2 59.3436 207.449 59.6241 208.475 59.8515Z" />
		<path d="M144.622 102.792H142.138V93.581C142.138 78.6938 130.025 66.5788 115.135 66.5788C100.248 66.5788 88.1358 78.6913 88.1358 93.581V102.792H85.6542C84.4801 102.792 83.3176 103.023 82.2328 103.472C81.1481 103.921 80.1624 104.579 79.3321 105.409C78.5018 106.24 77.8432 107.225 77.3939 108.31C76.9445 109.394 76.7132 110.557 76.7132 111.731V120.995H153.563V111.731C153.561 109.36 152.618 107.088 150.942 105.412C149.265 103.736 146.992 102.794 144.622 102.792ZM131.21 102.792H99.0605V93.581C99.0652 89.3191 100.76 85.2331 103.774 82.2195C106.788 79.2058 110.874 77.5107 115.135 77.506C119.398 77.5107 123.484 79.2058 126.498 82.2193C129.512 85.2329 131.208 89.3189 131.213 93.581V102.792H131.21ZM76.7107 124.968H153.56V144.641H76.7107V124.968ZM76.7107 156.193C76.7107 158.564 77.6527 160.838 79.3294 162.515C81.0062 164.192 83.2803 165.134 85.6516 165.134H144.622C146.993 165.133 149.266 164.191 150.942 162.514C152.619 160.838 153.56 158.564 153.56 156.193V148.614H76.7107V156.193Z" />
	</g>
</svg>
